<mxfile host="app.diagrams.net" agent="Mozilla/5.0 (Macintosh; Intel Mac OS X 10_15_7) AppleWebKit/537.36 (KHTML, like Gecko) Chrome/128.0.0.0 Safari/537.36" version="24.7.14">
  <diagram name="Страница — 1" id="NCM3BgLKuElled7AQ-Bl">
    <mxGraphModel dx="810" dy="468" grid="1" gridSize="10" guides="1" tooltips="1" connect="1" arrows="1" fold="1" page="1" pageScale="1" pageWidth="827" pageHeight="1169" math="0" shadow="0">
      <root>
        <mxCell id="0" />
        <mxCell id="1" parent="0" />
        <mxCell id="HJ1CUd1vfdcGyI_-TAYN-1" value="Animal" style="swimlane;fontStyle=1;align=center;verticalAlign=top;childLayout=stackLayout;horizontal=1;startSize=26;horizontalStack=0;resizeParent=1;resizeParentMax=0;resizeLast=0;collapsible=1;marginBottom=0;whiteSpace=wrap;html=1;" parent="1" vertex="1">
          <mxGeometry x="307" y="90" width="214" height="190" as="geometry" />
        </mxCell>
        <mxCell id="HJ1CUd1vfdcGyI_-TAYN-2" value="&lt;div&gt;id: Integer [1]&lt;/div&gt;name: String [1]&lt;div&gt;birthdate: Date [1]&lt;/div&gt;" style="text;strokeColor=none;fillColor=none;align=left;verticalAlign=top;spacingLeft=4;spacingRight=4;overflow=hidden;rotatable=0;points=[[0,0.5],[1,0.5]];portConstraint=eastwest;whiteSpace=wrap;html=1;" parent="HJ1CUd1vfdcGyI_-TAYN-1" vertex="1">
          <mxGeometry y="26" width="214" height="54" as="geometry" />
        </mxCell>
        <mxCell id="HJ1CUd1vfdcGyI_-TAYN-3" value="" style="line;strokeWidth=1;fillColor=none;align=left;verticalAlign=middle;spacingTop=-1;spacingLeft=3;spacingRight=3;rotatable=0;labelPosition=right;points=[];portConstraint=eastwest;strokeColor=inherit;" parent="HJ1CUd1vfdcGyI_-TAYN-1" vertex="1">
          <mxGeometry y="80" width="214" height="8" as="geometry" />
        </mxCell>
        <mxCell id="HJ1CUd1vfdcGyI_-TAYN-4" value="&lt;div&gt;+ getId(): integer&lt;/div&gt;&lt;div&gt;+ getName(): String&lt;/div&gt;&lt;div&gt;+ getBirthdate(): Date&lt;/div&gt;+ getCommands(): Set&amp;lt;Command&amp;gt;&lt;div&gt;+ learnCommand(command: Command): Boolean&lt;/div&gt;" style="text;strokeColor=none;fillColor=none;align=left;verticalAlign=top;spacingLeft=4;spacingRight=4;overflow=hidden;rotatable=0;points=[[0,0.5],[1,0.5]];portConstraint=eastwest;whiteSpace=wrap;html=1;" parent="HJ1CUd1vfdcGyI_-TAYN-1" vertex="1">
          <mxGeometry y="88" width="214" height="102" as="geometry" />
        </mxCell>
        <mxCell id="LpY_kSu30hzNXRpQzWhF-1" value="Nursery" style="text;html=1;align=center;verticalAlign=middle;whiteSpace=wrap;rounded=0;fontSize=18;fontStyle=1" parent="1" vertex="1">
          <mxGeometry x="384" y="30" width="60" height="30" as="geometry" />
        </mxCell>
        <mxCell id="LpY_kSu30hzNXRpQzWhF-5" value="Command" style="swimlane;fontStyle=1;align=center;verticalAlign=top;childLayout=stackLayout;horizontal=1;startSize=26;horizontalStack=0;resizeParent=1;resizeParentMax=0;resizeLast=0;collapsible=1;marginBottom=0;whiteSpace=wrap;html=1;" parent="1" vertex="1">
          <mxGeometry x="658" y="115" width="160" height="140" as="geometry" />
        </mxCell>
        <mxCell id="LpY_kSu30hzNXRpQzWhF-6" value="id: Integer [1]&lt;div&gt;name: String [1]&lt;/div&gt;&lt;div&gt;description: String [1]&lt;/div&gt;" style="text;strokeColor=none;fillColor=none;align=left;verticalAlign=top;spacingLeft=4;spacingRight=4;overflow=hidden;rotatable=0;points=[[0,0.5],[1,0.5]];portConstraint=eastwest;whiteSpace=wrap;html=1;" parent="LpY_kSu30hzNXRpQzWhF-5" vertex="1">
          <mxGeometry y="26" width="160" height="54" as="geometry" />
        </mxCell>
        <mxCell id="LpY_kSu30hzNXRpQzWhF-7" value="" style="line;strokeWidth=1;fillColor=none;align=left;verticalAlign=middle;spacingTop=-1;spacingLeft=3;spacingRight=3;rotatable=0;labelPosition=right;points=[];portConstraint=eastwest;strokeColor=inherit;" parent="LpY_kSu30hzNXRpQzWhF-5" vertex="1">
          <mxGeometry y="80" width="160" height="8" as="geometry" />
        </mxCell>
        <mxCell id="LpY_kSu30hzNXRpQzWhF-8" value="&lt;div&gt;+ getId(): Integer&lt;/div&gt;+ getName(): String&lt;div&gt;+ getDescription(): String&lt;/div&gt;" style="text;strokeColor=none;fillColor=none;align=left;verticalAlign=top;spacingLeft=4;spacingRight=4;overflow=hidden;rotatable=0;points=[[0,0.5],[1,0.5]];portConstraint=eastwest;whiteSpace=wrap;html=1;" parent="LpY_kSu30hzNXRpQzWhF-5" vertex="1">
          <mxGeometry y="88" width="160" height="52" as="geometry" />
        </mxCell>
        <mxCell id="LpY_kSu30hzNXRpQzWhF-9" value="" style="endArrow=open;endFill=1;endSize=12;html=1;rounded=0;" parent="1" source="HJ1CUd1vfdcGyI_-TAYN-1" target="LpY_kSu30hzNXRpQzWhF-5" edge="1">
          <mxGeometry width="160" relative="1" as="geometry">
            <mxPoint x="360" y="310" as="sourcePoint" />
            <mxPoint x="520" y="310" as="targetPoint" />
          </mxGeometry>
        </mxCell>
        <mxCell id="LpY_kSu30hzNXRpQzWhF-10" value="Pet" style="swimlane;fontStyle=1;align=center;verticalAlign=top;childLayout=stackLayout;horizontal=1;startSize=26;horizontalStack=0;resizeParent=1;resizeParentMax=0;resizeLast=0;collapsible=1;marginBottom=0;whiteSpace=wrap;html=1;" parent="1" vertex="1">
          <mxGeometry x="83" y="340" width="160" height="34" as="geometry" />
        </mxCell>
        <mxCell id="LpY_kSu30hzNXRpQzWhF-12" value="" style="line;strokeWidth=1;fillColor=none;align=left;verticalAlign=middle;spacingTop=-1;spacingLeft=3;spacingRight=3;rotatable=0;labelPosition=right;points=[];portConstraint=eastwest;strokeColor=inherit;" parent="LpY_kSu30hzNXRpQzWhF-10" vertex="1">
          <mxGeometry y="26" width="160" height="8" as="geometry" />
        </mxCell>
        <mxCell id="LpY_kSu30hzNXRpQzWhF-22" value="Cat" style="swimlane;fontStyle=1;align=center;verticalAlign=top;childLayout=stackLayout;horizontal=1;startSize=26;horizontalStack=0;resizeParent=1;resizeParentMax=0;resizeLast=0;collapsible=1;marginBottom=0;whiteSpace=wrap;html=1;" parent="1" vertex="1">
          <mxGeometry x="8" y="430" width="90" height="34" as="geometry">
            <mxRectangle x="10" y="410" width="60" height="30" as="alternateBounds" />
          </mxGeometry>
        </mxCell>
        <mxCell id="LpY_kSu30hzNXRpQzWhF-23" value="" style="line;strokeWidth=1;fillColor=none;align=left;verticalAlign=middle;spacingTop=-1;spacingLeft=3;spacingRight=3;rotatable=0;labelPosition=right;points=[];portConstraint=eastwest;strokeColor=inherit;" parent="LpY_kSu30hzNXRpQzWhF-22" vertex="1">
          <mxGeometry y="26" width="90" height="8" as="geometry" />
        </mxCell>
        <mxCell id="LpY_kSu30hzNXRpQzWhF-24" value="Dog" style="swimlane;fontStyle=1;align=center;verticalAlign=top;childLayout=stackLayout;horizontal=1;startSize=26;horizontalStack=0;resizeParent=1;resizeParentMax=0;resizeLast=0;collapsible=1;marginBottom=0;whiteSpace=wrap;html=1;" parent="1" vertex="1">
          <mxGeometry x="118" y="430" width="90" height="34" as="geometry">
            <mxRectangle x="10" y="410" width="60" height="30" as="alternateBounds" />
          </mxGeometry>
        </mxCell>
        <mxCell id="LpY_kSu30hzNXRpQzWhF-25" value="" style="line;strokeWidth=1;fillColor=none;align=left;verticalAlign=middle;spacingTop=-1;spacingLeft=3;spacingRight=3;rotatable=0;labelPosition=right;points=[];portConstraint=eastwest;strokeColor=inherit;" parent="LpY_kSu30hzNXRpQzWhF-24" vertex="1">
          <mxGeometry y="26" width="90" height="8" as="geometry" />
        </mxCell>
        <mxCell id="LpY_kSu30hzNXRpQzWhF-26" value="Hamster" style="swimlane;fontStyle=1;align=center;verticalAlign=top;childLayout=stackLayout;horizontal=1;startSize=26;horizontalStack=0;resizeParent=1;resizeParentMax=0;resizeLast=0;collapsible=1;marginBottom=0;whiteSpace=wrap;html=1;" parent="1" vertex="1">
          <mxGeometry x="228" y="430" width="90" height="34" as="geometry">
            <mxRectangle x="10" y="410" width="60" height="30" as="alternateBounds" />
          </mxGeometry>
        </mxCell>
        <mxCell id="LpY_kSu30hzNXRpQzWhF-27" value="" style="line;strokeWidth=1;fillColor=none;align=left;verticalAlign=middle;spacingTop=-1;spacingLeft=3;spacingRight=3;rotatable=0;labelPosition=right;points=[];portConstraint=eastwest;strokeColor=inherit;" parent="LpY_kSu30hzNXRpQzWhF-26" vertex="1">
          <mxGeometry y="26" width="90" height="8" as="geometry" />
        </mxCell>
        <mxCell id="LpY_kSu30hzNXRpQzWhF-28" value="PackAnimal" style="swimlane;fontStyle=1;align=center;verticalAlign=top;childLayout=stackLayout;horizontal=1;startSize=26;horizontalStack=0;resizeParent=1;resizeParentMax=0;resizeLast=0;collapsible=1;marginBottom=0;whiteSpace=wrap;html=1;" parent="1" vertex="1">
          <mxGeometry x="583" y="340" width="160" height="34" as="geometry" />
        </mxCell>
        <mxCell id="LpY_kSu30hzNXRpQzWhF-30" value="" style="line;strokeWidth=1;fillColor=none;align=left;verticalAlign=middle;spacingTop=-1;spacingLeft=3;spacingRight=3;rotatable=0;labelPosition=right;points=[];portConstraint=eastwest;strokeColor=inherit;" parent="LpY_kSu30hzNXRpQzWhF-28" vertex="1">
          <mxGeometry y="26" width="160" height="8" as="geometry" />
        </mxCell>
        <mxCell id="LpY_kSu30hzNXRpQzWhF-32" value="Horse" style="swimlane;fontStyle=1;align=center;verticalAlign=top;childLayout=stackLayout;horizontal=1;startSize=26;horizontalStack=0;resizeParent=1;resizeParentMax=0;resizeLast=0;collapsible=1;marginBottom=0;whiteSpace=wrap;html=1;" parent="1" vertex="1">
          <mxGeometry x="508" y="430" width="90" height="34" as="geometry">
            <mxRectangle x="10" y="410" width="60" height="30" as="alternateBounds" />
          </mxGeometry>
        </mxCell>
        <mxCell id="LpY_kSu30hzNXRpQzWhF-33" value="" style="line;strokeWidth=1;fillColor=none;align=left;verticalAlign=middle;spacingTop=-1;spacingLeft=3;spacingRight=3;rotatable=0;labelPosition=right;points=[];portConstraint=eastwest;strokeColor=inherit;" parent="LpY_kSu30hzNXRpQzWhF-32" vertex="1">
          <mxGeometry y="26" width="90" height="8" as="geometry" />
        </mxCell>
        <mxCell id="LpY_kSu30hzNXRpQzWhF-34" value="Camel" style="swimlane;fontStyle=1;align=center;verticalAlign=top;childLayout=stackLayout;horizontal=1;startSize=26;horizontalStack=0;resizeParent=1;resizeParentMax=0;resizeLast=0;collapsible=1;marginBottom=0;whiteSpace=wrap;html=1;" parent="1" vertex="1">
          <mxGeometry x="618" y="430" width="90" height="34" as="geometry">
            <mxRectangle x="10" y="410" width="60" height="30" as="alternateBounds" />
          </mxGeometry>
        </mxCell>
        <mxCell id="LpY_kSu30hzNXRpQzWhF-35" value="" style="line;strokeWidth=1;fillColor=none;align=left;verticalAlign=middle;spacingTop=-1;spacingLeft=3;spacingRight=3;rotatable=0;labelPosition=right;points=[];portConstraint=eastwest;strokeColor=inherit;" parent="LpY_kSu30hzNXRpQzWhF-34" vertex="1">
          <mxGeometry y="26" width="90" height="8" as="geometry" />
        </mxCell>
        <mxCell id="LpY_kSu30hzNXRpQzWhF-36" value="Donkey" style="swimlane;fontStyle=1;align=center;verticalAlign=top;childLayout=stackLayout;horizontal=1;startSize=26;horizontalStack=0;resizeParent=1;resizeParentMax=0;resizeLast=0;collapsible=1;marginBottom=0;whiteSpace=wrap;html=1;" parent="1" vertex="1">
          <mxGeometry x="728" y="430" width="90" height="34" as="geometry">
            <mxRectangle x="10" y="410" width="60" height="30" as="alternateBounds" />
          </mxGeometry>
        </mxCell>
        <mxCell id="LpY_kSu30hzNXRpQzWhF-37" value="" style="line;strokeWidth=1;fillColor=none;align=left;verticalAlign=middle;spacingTop=-1;spacingLeft=3;spacingRight=3;rotatable=0;labelPosition=right;points=[];portConstraint=eastwest;strokeColor=inherit;" parent="LpY_kSu30hzNXRpQzWhF-36" vertex="1">
          <mxGeometry y="26" width="90" height="8" as="geometry" />
        </mxCell>
        <mxCell id="LpY_kSu30hzNXRpQzWhF-38" value="" style="endArrow=block;endSize=16;endFill=0;html=1;rounded=0;" parent="1" source="LpY_kSu30hzNXRpQzWhF-24" target="LpY_kSu30hzNXRpQzWhF-10" edge="1">
          <mxGeometry x="0.0084" width="160" relative="1" as="geometry">
            <mxPoint x="163" y="410" as="sourcePoint" />
            <mxPoint x="174.28022618452087" y="624" as="targetPoint" />
            <mxPoint as="offset" />
          </mxGeometry>
        </mxCell>
        <mxCell id="LpY_kSu30hzNXRpQzWhF-40" value="" style="endArrow=none;html=1;rounded=0;exitX=0.5;exitY=0;exitDx=0;exitDy=0;entryX=0.5;entryY=0;entryDx=0;entryDy=0;" parent="1" source="LpY_kSu30hzNXRpQzWhF-22" target="LpY_kSu30hzNXRpQzWhF-26" edge="1">
          <mxGeometry width="50" height="50" relative="1" as="geometry">
            <mxPoint x="388" y="420" as="sourcePoint" />
            <mxPoint x="438" y="370" as="targetPoint" />
            <Array as="points">
              <mxPoint x="53" y="410" />
              <mxPoint x="168" y="410" />
              <mxPoint x="273" y="410" />
            </Array>
          </mxGeometry>
        </mxCell>
        <mxCell id="LpY_kSu30hzNXRpQzWhF-43" value="" style="endArrow=block;endSize=16;endFill=0;html=1;rounded=0;" parent="1" source="LpY_kSu30hzNXRpQzWhF-34" target="LpY_kSu30hzNXRpQzWhF-28" edge="1">
          <mxGeometry x="0.0084" width="160" relative="1" as="geometry">
            <mxPoint x="719" y="400" as="sourcePoint" />
            <mxPoint x="663" y="436" as="targetPoint" />
            <mxPoint as="offset" />
          </mxGeometry>
        </mxCell>
        <mxCell id="LpY_kSu30hzNXRpQzWhF-44" value="" style="endArrow=none;html=1;rounded=0;exitX=0.5;exitY=0;exitDx=0;exitDy=0;entryX=0.5;entryY=0;entryDx=0;entryDy=0;" parent="1" edge="1">
          <mxGeometry width="50" height="50" relative="1" as="geometry">
            <mxPoint x="553" y="430" as="sourcePoint" />
            <mxPoint x="773" y="430" as="targetPoint" />
            <Array as="points">
              <mxPoint x="553" y="410" />
              <mxPoint x="668" y="410" />
              <mxPoint x="773" y="410" />
            </Array>
          </mxGeometry>
        </mxCell>
        <mxCell id="LpY_kSu30hzNXRpQzWhF-47" value="" style="endArrow=none;html=1;rounded=0;" parent="1" source="LpY_kSu30hzNXRpQzWhF-10" target="LpY_kSu30hzNXRpQzWhF-28" edge="1">
          <mxGeometry width="50" height="50" relative="1" as="geometry">
            <mxPoint x="259" y="410" as="sourcePoint" />
            <mxPoint x="309" y="360" as="targetPoint" />
            <Array as="points">
              <mxPoint x="163" y="320" />
              <mxPoint x="663" y="320" />
            </Array>
          </mxGeometry>
        </mxCell>
        <mxCell id="LpY_kSu30hzNXRpQzWhF-48" value="" style="endArrow=block;endSize=16;endFill=0;html=1;rounded=0;" parent="1" target="HJ1CUd1vfdcGyI_-TAYN-4" edge="1">
          <mxGeometry x="0.0084" width="160" relative="1" as="geometry">
            <mxPoint x="414" y="320" as="sourcePoint" />
            <mxPoint x="413.86" y="240" as="targetPoint" />
            <mxPoint as="offset" />
          </mxGeometry>
        </mxCell>
        <mxCell id="LpY_kSu30hzNXRpQzWhF-49" value="*" style="text;html=1;align=center;verticalAlign=middle;whiteSpace=wrap;rounded=0;fontSize=18;" parent="1" vertex="1">
          <mxGeometry x="618" y="170" width="30" height="20" as="geometry" />
        </mxCell>
        <mxCell id="LpY_kSu30hzNXRpQzWhF-50" value="Commands" style="text;html=1;align=center;verticalAlign=middle;whiteSpace=wrap;rounded=0;" parent="1" vertex="1">
          <mxGeometry x="550" y="160" width="60" height="30" as="geometry" />
        </mxCell>
        <mxCell id="LpY_kSu30hzNXRpQzWhF-52" value="1" style="text;html=1;align=center;verticalAlign=middle;whiteSpace=wrap;rounded=0;" parent="1" vertex="1">
          <mxGeometry x="500" y="160" width="60" height="30" as="geometry" />
        </mxCell>
      </root>
    </mxGraphModel>
  </diagram>
</mxfile>
